HIERARCHY
ROOT Hips
{
   OFFSET 0.00000 0.00000 0.00000
   CHANNELS 6 Xposition Yposition Zposition Zrotation Xrotation Yrotation
   JOINT RightUpLeg
   {
      OFFSET -8.945800 -8.667070 0.101652
      CHANNELS 3 Zrotation Xrotation Yrotation
      JOINT RightLeg
      {
         OFFSET 0.000000 -44.422697 1.372700
         CHANNELS 3 Zrotation Xrotation Yrotation
         JOINT RightFoot
         {
            OFFSET 0.253549 -42.092399 -1.460590
            CHANNELS 3 Zrotation Xrotation Yrotation
            JOINT RightToes
            {
               OFFSET 0.040000 -4.415090 8.499099
               CHANNELS 3 Zrotation Xrotation Yrotation
               End Site
               {
                  OFFSET -0.080000 -0.137448 9.779790
               }
            }
         }
      }
   }
   JOINT Spine
   {
      OFFSET 0.000000 11.890501 0.000000
      CHANNELS 3 Zrotation Xrotation Yrotation
      JOINT Spine1
      {
         OFFSET 0.000000 25.657401 0.127663
         CHANNELS 3 Zrotation Xrotation Yrotation
         JOINT HEad
         {
            OFFSET 0.000000 8.734161 0.011341
            CHANNELS 3 Zrotation Xrotation Yrotation
            End Site
            {
               OFFSET -0.290000 12.774200 2.513950
            }
         }
         JOINT LeftShoulder1
         {
            OFFSET 8.990000 -0.362252 -0.220000
            CHANNELS 3 Zrotation Xrotation Yrotation
            JOINT LeftArm
            {
               OFFSET 10.282700 -0.003380 0.322123
               CHANNELS 3 Zrotation Xrotation Yrotation
               JOINT LeftForeArm
               {
                  OFFSET 32.766900 0.099144 -1.424340
                  CHANNELS 3 Zrotation Xrotation Yrotation
                  JOINT LeftHand
                  {
                     OFFSET 27.564301 0.085362 1.022160
                     CHANNELS 3 Zrotation Xrotation Yrotation
                     End Site
                     {
                        OFFSET 16.744301 -0.600000 1.502910
                     }
                  }
               }
            }
         }
         JOINT RightShoulder
         {
            OFFSET -8.990000 -0.362252 -0.220000
            CHANNELS 3 Zrotation Xrotation Yrotation
            JOINT RightArm
            {
               OFFSET -10.282700 -0.003380 0.322123
               CHANNELS 3 Zrotation Xrotation Yrotation
               JOINT RightForeArm
               {
                  OFFSET -32.897098 0.099144 -1.424340
                  CHANNELS 3 Zrotation Xrotation Yrotation
                  JOINT RightHand
                  {
                     OFFSET -27.492101 0.085362 1.022160
                     CHANNELS 3 Zrotation Xrotation Yrotation
                     End Site
                     {
                        OFFSET -16.631201 -0.600000 1.502910
                     }
                  }
               }
            }
         }
      }
   }
   JOINT LeftUpLeg
   {
      OFFSET 8.945800 -8.667070 0.101652
      CHANNELS 3 Zrotation Xrotation Yrotation
      JOINT LeftLeg
      {
         OFFSET 0.000000 -44.422697 1.372700
         CHANNELS 3 Zrotation Xrotation Yrotation
         JOINT LeftFoot
         {
            OFFSET -0.253549 -42.092399 -1.460590
            CHANNELS 3 Zrotation Xrotation Yrotation
            JOINT LeftToes
            {
               OFFSET -0.040000 -4.415090 8.499099
               CHANNELS 3 Zrotation Xrotation Yrotation
               End Site
               {
                  OFFSET 0.080000 -0.047448 9.779790
               }
            }
         }
      }
   }
}
MOTION
Frames: 12
Frame Time: 0.016667
-218.343903 100.870722 397.870477 38.365306 29.569180 90.240814 -21.519932 29.587946 4.161750 15.521350 4.054575 -5.323239 -56.429732 18.022122 29.124258 0.614603 0.481172 -43.237334 -46.765851 37.639803 16.780559 -0.891871 17.235542 -17.590601 -40.454807 14.545743 1.874496 -8.822783 -16.778016 7.026181 -55.093542 -51.383851 -84.977204 -7.267126 28.296535 -39.613642 6.620302 -14.215084 -38.819274 -36.564646 54.043179 92.394469 97.994650 157.685654 206.089483 -36.717369 236.503168 33.861701 9.834808 -10.422529 46.251063 7.769730 7.527814 -35.351300 -37.445911 9.542309 134.881934 -17.938566 20.205267 21.817631 26.838318 -29.182011 -46.272957
-216.635911 99.925192 398.238138 41.786367 31.148483 88.155257 -23.589547 30.515752 9.065089 16.061825 8.232323 -10.417657 -57.093910 14.475368 28.499227 0.160486 -0.527246 -43.705431 -48.919444 37.066709 21.701034 0.508980 21.096711 -17.335061 -41.505482 15.577184 0.366415 -8.151780 -13.950775 3.801310 -41.294634 -50.271616 -69.657759 3.198110 20.195725 -38.378297 4.831620 -19.317182 -52.257029 -38.050933 54.530588 91.311242 96.154474 155.758038 204.431947 -34.448913 237.327545 34.611871 3.053959 -9.529772 44.342152 5.695470 8.791556 -24.454068 -32.181942 17.393012 121.622310 -27.551229 22.274097 22.063323 28.214676 -27.995694 -47.432016
-214.922310 98.967389 398.653902 46.969295 31.198894 84.899975 -24.881573 33.237476 15.418896 16.444562 12.154204 -16.280265 -57.994849 11.558114 27.961726 -0.368505 -1.816358 -44.425261 -48.418706 35.853060 26.378957 2.092851 25.096931 -17.116384 -42.788492 15.758544 -0.502596 -7.343935 -11.133330 0.647509 -26.012043 -45.572607 -53.590774 10.853918 9.584029 -35.338398 0.579736 -17.585292 -27.581964 -39.531786 55.087508 91.348022 95.025348 153.230936 203.357790 -32.561294 235.816215 36.134839 7.873526 -4.665667 41.162135 5.913421 11.068126 -10.035066 -23.850249 25.010566 105.206244 -40.622721 24.848889 24.050892 29.782405 -26.345136 -47.840312
-213.405778 98.322113 399.220537 52.785491 30.408115 81.651414 -24.938482 36.590481 22.499792 17.506910 15.656132 -22.030772 -58.359916 9.361795 27.026167 -0.414657 -2.791048 -45.658551 -47.040653 35.437009 31.764857 2.028176 28.789722 -16.030292 -45.319961 14.306436 0.001183 -6.437641 -8.058413 -3.863622 -13.061349 -37.343841 -39.833653 14.615350 -2.933747 -30.063054 -4.300483 -22.319991 -46.394422 -45.067897 54.407497 90.773344 93.033310 149.380376 201.013109 -29.931142 234.123722 35.590138 5.703039 -3.232593 36.456527 8.018678 10.360319 6.896426 -13.048017 27.870469 84.611851 -30.628470 27.730215 23.492185 31.023153 -24.837802 -47.667545
-211.828019 97.537774 399.844126 57.246086 29.201210 79.397104 -24.803429 39.896112 28.264440 19.000931 17.655878 -27.842841 -56.573777 6.990460 26.168821 -0.489009 -4.044613 -47.029336 -45.187302 38.629474 32.656391 2.069876 29.637670 -16.015624 -47.840995 11.395967 1.443381 -7.219308 -5.490216 -8.489602 -5.377950 -28.065642 -26.338394 16.667168 -17.722189 -18.776257 -5.898879 -18.011407 -20.265405 -49.524404 53.105428 92.003980 92.132435 147.075802 200.444701 -28.458912 230.909380 37.151591 9.723943 0.077801 34.490266 10.801674 9.402049 22.471549 -2.361431 26.169378 63.044203 -31.071132 28.910152 23.325759 33.468699 -21.426314 -46.553596
-209.966046 96.590136 400.448946 60.757183 28.792724 78.637648 -24.689211 43.563063 33.047778 20.742094 18.404291 -33.190109 -54.841208 4.727453 25.736626 -0.526266 -5.257276 -48.061671 -42.556136 45.364440 30.644190 2.004632 29.526986 -16.399689 -49.812419 6.595098 3.512395 -9.026778 -4.974667 -13.749008 -0.751790 -20.153715 -15.994785 15.462192 -31.103015 -13.056310 -8.378813 -22.747822 -36.182316 -55.935513 52.429761 93.273958 92.141854 142.962293 201.758570 -27.628820 229.011680 42.933497 9.698251 2.287358 37.157011 14.607714 7.654188 36.625383 2.960412 18.629187 46.222854 -31.414984 31.926592 23.533881 37.165723 -16.241193 -44.285461
-207.961861 95.581463 400.930170 65.242568 29.671482 78.435468 -25.431740 48.833349 37.425127 21.840305 17.802231 -38.279747 -54.929488 2.345182 25.331222 -0.454358 -6.182519 -48.689905 -41.033970 53.966701 28.715915 2.390777 32.126427 -16.002788 -52.356361 1.857052 4.917791 -10.486034 -5.830612 -17.234890 0.042012 -14.670099 -10.698278 16.117440 -40.072785 -10.677878 -6.571477 -18.716866 -23.171366 -54.326949 46.394302 94.815976 95.371420 132.187205 201.051522 -28.096789 224.317974 45.639891 11.728659 4.294188 37.851143 18.424527 6.125095 48.991502 2.562148 13.023536 35.231427 -30.333468 34.357136 22.516345 40.155485 -12.012527 -41.544520
-205.511319 94.378899 400.864595 72.180196 31.787612 77.702233 -29.860122 55.975487 40.073020 23.580262 18.020199 -42.261112 -54.779890 0.305107 24.540443 -0.065571 -6.894294 -49.821333 -38.769117 60.028559 23.503620 2.832387 34.272390 -16.678543 -54.978283 -0.438304 6.222507 -11.239371 -8.544527 -19.528037 -1.645332 -12.264223 -7.524348 16.599291 -45.997352 -8.883014 7.631778 -18.109729 -45.898055 -55.318511 40.833053 96.544628 96.474475 124.685062 198.221502 -27.111724 222.201859 47.381476 -1.106127 5.938599 51.415868 21.265406 8.015956 57.341999 -1.417557 9.535429 26.010662 -30.367209 39.503311 21.892317 43.775154 -7.203263 -39.787122
-202.447011 93.238753 400.110391 80.928227 34.538689 76.898354 -40.300677 66.112884 42.135522 25.256561 18.257108 -43.742837 -55.310585 -1.533282 24.595224 -0.316765 -8.082660 -50.108009 -29.262842 58.810941 14.921513 2.687682 35.394423 -18.262200 -57.625965 -0.081076 7.363145 -10.942703 -9.933722 -22.028692 -3.908429 -13.272898 -4.386443 14.894653 -46.689397 -7.377061 -4.932742 -12.637538 -27.787621 -66.457017 39.658616 99.645329 94.295249 126.415081 196.530142 -24.010804 222.205110 48.488189 12.995494 4.867063 34.243515 20.192469 13.419322 63.234178 -5.971269 2.898181 19.363885 -33.862104 42.800602 19.576649 44.499475 -5.902635 -38.517633
-199.131772 91.869601 399.045938 88.102200 34.983249 75.955474 -50.195122 74.398573 47.708646 23.234270 21.288673 -42.215302 -55.661554 -3.850599 25.174407 -0.983403 -9.596019 -50.291199 -18.656918 57.519666 3.737053 2.325680 36.761475 -21.477885 -57.995819 0.672339 7.923222 -11.930229 -10.902256 -21.821744 -4.699797 -17.820121 0.206814 14.051873 -42.764351 -6.554455 -1.335253 -15.782291 -34.293311 -76.051513 40.181904 103.558351 92.457634 129.007397 193.908920 -20.927595 220.922551 51.027336 11.875103 3.434194 39.960957 21.779851 15.965991 67.176973 -9.413213 -1.333940 12.783543 -39.151406 46.497657 16.905558 45.159558 -5.437433 -37.539321
-195.950257 90.066136 398.040193 90.597644 31.623325 75.334712 -58.775854 78.822466 53.242305 21.205304 24.546597 -40.397734 -55.915330 -6.767991 25.474471 -1.816660 -11.394734 -50.828639 -9.878022 54.795763 -5.128471 2.691320 38.081740 -22.757065 -55.836957 0.853312 7.669329 -13.594378 -11.722574 -21.105590 -6.211425 -20.249877 3.650413 13.142701 -39.605685 -6.011659 -9.016347 -13.795008 -25.233203 -85.645812 39.473231 107.728551 91.425647 130.474153 190.856768 -18.937362 219.723402 52.307966 17.644380 0.931285 34.286631 25.440817 15.318781 71.724295 -10.089020 -6.667977 7.462745 -40.907891 48.536226 13.710739 44.292858 -7.962051 -36.271590
-192.841031 87.900027 397.080988 91.587311 31.624835 75.738581 -67.339170 81.190868 57.337061 19.744205 27.072981 -38.941702 -55.987648 -9.363770 25.473250 -2.466527 -13.197996 -51.797781 -4.978264 48.365099 -12.016900 1.598980 41.196149 -24.265246 -51.395661 0.868560 7.137131 -17.367361 -11.604020 -19.456267 -6.818519 -20.558717 6.109416 13.419713 -36.909564 -7.240332 -6.093141 -15.215850 -30.725893 -93.860248 36.366270 113.475930 89.515462 132.098167 190.657231 -16.716186 218.951672 53.905673 15.279522 -0.116280 38.746024 30.196014 15.176392 70.249063 -12.354272 -0.072354 3.502391 -48.751858 49.161021 6.651730 43.339610 -12.007137 -38.212269
